<svg width="102" height="102" viewBox="0 0 102 102" fill="none" xmlns="http://www.w3.org/2000/svg">
<rect opacity="0.3" width="102" height="102" rx="26" fill="#6ecc51"/>
<g filter="url(#filter0_d)">
<path d="M63.5 34.3333C62.7375 34.3333 39.2625 34.3333 38.5 34.3333C36.1979 34.3333 34.3333 36.1979 34.3333 38.5H67.6667C67.6667 36.1979 65.8021 34.3333 63.5 34.3333H63.5Z" fill="#6ecc51"/>
<path opacity="0.35" d="M28.0833 44.75V61.4167C28.0833 64.8687 30.8812 67.6667 34.3333 67.6667H42.6021C45.1583 67.6667 47.4562 66.1104 48.4062 63.7375L49.6437 60.6417C50.1333 59.4167 51.8667 59.4167 52.3583 60.6417L53.5979 63.7375C54.5438 66.1104 56.8417 67.6667 59.3979 67.6667H67.6667C71.1188 67.6667 73.9167 64.8687 73.9167 61.4167V44.75C73.9167 41.2979 71.1188 38.5 67.6667 38.5H34.3333C30.8812 38.5 28.0833 41.2979 28.0833 44.75V44.75Z" fill="#6ecc51"/>
<path d="M62.4584 59.3333C65.3348 59.3333 67.6667 57.0015 67.6667 54.125C67.6667 51.2485 65.3348 48.9167 62.4584 48.9167C59.5819 48.9167 57.25 51.2485 57.25 54.125C57.25 57.0015 59.5819 59.3333 62.4584 59.3333Z" fill="#6ecc51"/>
<path d="M39.5417 59.3333C42.4182 59.3333 44.75 57.0015 44.75 54.125C44.75 51.2485 42.4182 48.9167 39.5417 48.9167C36.6652 48.9167 34.3333 51.2485 34.3333 54.125C34.3333 57.0015 36.6652 59.3333 39.5417 59.3333Z" fill="#6ecc51"/>
</g>
<defs>
<filter id="filter0_d" x="11" y="19" width="80" height="80" filterUnits="userSpaceOnUse" color-interpolation-filters="sRGB">
<feFlood flood-opacity="0" result="BackgroundImageFix"/>
<feColorMatrix in="SourceAlpha" type="matrix" values="0 0 0 0 0 0 0 0 0 0 0 0 0 0 0 0 0 0 127 0"/>
<feOffset dy="8"/>
<feGaussianBlur stdDeviation="7.5"/>
<feColorMatrix type="matrix" values="0 0 0 0 0.376471 0 0 0 0 0.65098 0 0 0 0 0.290196 0 0 0 0.35 0"/>
<feBlend mode="normal" in2="BackgroundImageFix" result="effect1_dropShadow"/>
<feBlend mode="normal" in="SourceGraphic" in2="effect1_dropShadow" result="shape"/>
</filter>
</defs>
</svg>
