<svg width="102" height="102" viewBox="0 0 102 102" fill="none" xmlns="http://www.w3.org/2000/svg">
<rect opacity="0.3" width="102" height="102" rx="26" fill="#6ecc51"/>
<g filter="url(#filter0_d)">
<path opacity="0.35" d="M34.3333 69.75V32.25C34.3333 31.1 35.2667 30.1667 36.4167 30.1667H61.4167C64.8688 30.1667 67.6667 32.9646 67.6667 36.4167V65.5833C67.6667 69.0354 64.8688 71.8333 61.4167 71.8333H36.4167C35.2667 71.8333 34.3333 70.9 34.3333 69.75V69.75Z" fill="#6ecc51"/>
<path d="M53.0834 30.1667H42.6667V51.45C42.6667 52.8167 44.2479 53.5771 45.3146 52.7229L47.875 50.675L50.4354 52.7229C51.5021 53.5771 53.0833 52.8167 53.0833 51.45L53.0834 30.1667Z" fill="#6ecc51"/>
</g>
<defs>
<filter id="filter0_d" x="11" y="19" width="80" height="80" filterUnits="userSpaceOnUse" color-interpolation-filters="sRGB">
<feFlood flood-opacity="0" result="BackgroundImageFix"/>
<feColorMatrix in="SourceAlpha" type="matrix" values="0 0 0 0 0 0 0 0 0 0 0 0 0 0 0 0 0 0 127 0"/>
<feOffset dy="8"/>
<feGaussianBlur stdDeviation="7.5"/>
<feColorMatrix type="matrix" values="0 0 0 0 0.376471 0 0 0 0 0.65098 0 0 0 0 0.290196 0 0 0 0.35 0"/>
<feBlend mode="normal" in2="BackgroundImageFix" result="effect1_dropShadow"/>
<feBlend mode="normal" in="SourceGraphic" in2="effect1_dropShadow" result="shape"/>
</filter>
</defs>
</svg>
