<svg width="102" height="102" viewBox="0 0 102 102" fill="none" xmlns="http://www.w3.org/2000/svg">
<rect opacity="0.3" width="102" height="102" rx="26" fill="#60A64A"/>
<g filter="url(#filter0_d)">
<path opacity="0.35" d="M38.5 40.5833C41.3765 40.5833 43.7083 38.2515 43.7083 35.375C43.7083 32.4985 41.3765 30.1667 38.5 30.1667C35.6235 30.1667 33.2917 32.4985 33.2917 35.375C33.2917 38.2515 35.6235 40.5833 38.5 40.5833Z" fill="#60A64A"/>
<path d="M44.75 63.5C44.75 62.35 43.8167 61.4167 42.6667 61.4167C41.5167 61.4167 40.5833 62.35 40.5833 63.5C40.5833 63.8875 40.5833 69.3625 40.5833 69.75C40.5833 70.9 41.5167 71.8333 42.6667 71.8333C43.8167 71.8333 44.75 70.9 44.75 69.75C44.75 69.3625 44.75 63.8875 44.75 63.5Z" fill="#60A64A"/>
<path d="M36.4167 63.5C36.4167 62.35 35.4833 61.4167 34.3333 61.4167C33.1833 61.4167 32.25 62.35 32.25 63.5C32.25 63.8875 32.25 69.3625 32.25 69.75C32.25 70.9 33.1833 71.8333 34.3333 71.8333C35.4833 71.8333 36.4167 70.9 36.4167 69.75C36.4167 69.3625 36.4167 63.8875 36.4167 63.5Z" fill="#60A64A"/>
<path d="M30.1667 48.9167V60.375C30.1667 62.1 31.5667 63.5 33.2917 63.5H36.4167C36.4167 62.35 37.35 61.4167 38.5 61.4167C39.65 61.4167 40.5833 62.35 40.5833 63.5H44.75V48.9167C44.75 45.4646 41.9521 42.6667 38.5 42.6667H36.4167C32.9646 42.6667 30.1667 45.4646 30.1667 48.9167V48.9167Z" fill="#60A64A"/>
<path opacity="0.35" d="M63.5 40.5833C66.3765 40.5833 68.7084 38.2515 68.7084 35.375C68.7084 32.4985 66.3765 30.1667 63.5 30.1667C60.6235 30.1667 58.2917 32.4985 58.2917 35.375C58.2917 38.2515 60.6235 40.5833 63.5 40.5833Z" fill="#60A64A"/>
<path d="M57.25 63.5C57.25 62.35 58.1833 61.4167 59.3333 61.4167C60.4833 61.4167 61.4167 62.35 61.4167 63.5C61.4167 63.8875 61.4167 69.3625 61.4167 69.75C61.4167 70.9 60.4833 71.8333 59.3333 71.8333C58.1833 71.8333 57.25 70.9 57.25 69.75C57.25 69.3625 57.25 63.8875 57.25 63.5Z" fill="#60A64A"/>
<path d="M65.5833 63.5C65.5833 62.35 66.5167 61.4167 67.6667 61.4167C68.8167 61.4167 69.75 62.35 69.75 63.5C69.75 63.8875 69.75 69.3625 69.75 69.75C69.75 70.9 68.8167 71.8333 67.6667 71.8333C66.5167 71.8333 65.5833 70.9 65.5833 69.75C65.5833 69.3625 65.5833 63.8875 65.5833 63.5Z" fill="#60A64A"/>
<path d="M71.8333 48.9167V60.375C71.8333 62.1 70.4333 63.5 68.7083 63.5H65.5833C65.5833 62.35 64.65 61.4167 63.5 61.4167C62.35 61.4167 61.4167 62.35 61.4167 63.5H57.25V48.9167C57.25 45.4646 60.0479 42.6667 63.5 42.6667H65.5833C69.0354 42.6667 71.8333 45.4646 71.8333 48.9167V48.9167Z" fill="#60A64A"/>
<path d="M51 59.3333C50.3875 59.3333 49.8062 59.0646 49.4104 58.5958L40.0625 47.5687C39.3167 46.6917 39.425 45.3771 40.3042 44.6312C41.1833 43.8896 42.4958 43.9979 43.2396 44.875L51 54.0271L58.7604 44.8729C59.5042 43.9937 60.8167 43.8854 61.6958 44.6313C62.5729 45.375 62.6833 46.6896 61.9375 47.5667L52.5875 58.5958C52.1937 59.0646 51.6125 59.3333 51 59.3333H51Z" fill="#60A64A"/>
</g>
<defs>
<filter id="filter0_d" x="11" y="19" width="80" height="80" filterUnits="userSpaceOnUse" color-interpolation-filters="sRGB">
<feFlood flood-opacity="0" result="BackgroundImageFix"/>
<feColorMatrix in="SourceAlpha" type="matrix" values="0 0 0 0 0 0 0 0 0 0 0 0 0 0 0 0 0 0 127 0"/>
<feOffset dy="8"/>
<feGaussianBlur stdDeviation="7.5"/>
<feColorMatrix type="matrix" values="0 0 0 0 0.376471 0 0 0 0 0.65098 0 0 0 0 0.290196 0 0 0 0.35 0"/>
<feBlend mode="normal" in2="BackgroundImageFix" result="effect1_dropShadow"/>
<feBlend mode="normal" in="SourceGraphic" in2="effect1_dropShadow" result="shape"/>
</filter>
</defs>
</svg>
