<svg width="100" height="100" viewBox="0 0 100 100" fill="none" xmlns="http://www.w3.org/2000/svg">
<path opacity="0.35" d="M27.0833 75C37.4387 75 45.8333 66.6054 45.8333 56.25C45.8333 45.8947 37.4387 37.5 27.0833 37.5C16.728 37.5 8.33331 45.8947 8.33331 56.25C8.33331 66.6054 16.728 75 27.0833 75Z" fill="#6ecc51"/>
<path d="M45.8333 95.8333H8.33333C3.72916 95.8333 0 92.1041 0 87.5C0 82.8958 3.72917 79.1667 8.33333 79.1667H45.8333C50.4375 79.1667 54.1667 82.8958 54.1667 87.5C54.1667 92.1042 50.4375 95.8333 45.8333 95.8333Z" fill="#6ecc51"/>
<path d="M83.3333 8.33333H58.3333C53.7292 8.33333 50 12.0625 50 16.6667V45.8333C50 49.2667 53.9208 51.225 56.6667 49.1667L64.4458 43.3333C65.8875 42.25 67.6417 41.6667 69.4458 41.6667H83.3333C87.9375 41.6667 91.6667 37.9375 91.6667 33.3333V16.6667C91.6667 12.0625 87.9375 8.33333 83.3333 8.33333H83.3333ZM62.5 29.1667C60.2 29.1667 58.3333 27.3 58.3333 25C58.3333 22.7 60.2 20.8333 62.5 20.8333C64.8 20.8333 66.6667 22.7 66.6667 25C66.6667 27.3 64.8 29.1667 62.5 29.1667V29.1667ZM79.1667 29.1667H75C72.7 29.1667 70.8333 27.3 70.8333 25C70.8333 22.7 72.7 20.8333 75 20.8333H79.1667C81.4667 20.8333 83.3333 22.7 83.3333 25C83.3333 27.3 81.4667 29.1667 79.1667 29.1667V29.1667Z" fill="#6ecc51"/>
<path opacity="0.35" d="M62.5 29.1667C64.8012 29.1667 66.6667 27.3012 66.6667 25C66.6667 22.6988 64.8012 20.8333 62.5 20.8333C60.1989 20.8333 58.3334 22.6988 58.3334 25C58.3334 27.3012 60.1989 29.1667 62.5 29.1667Z" fill="#6ecc51"/>
<path opacity="0.35" d="M79.1667 29.1667H75C72.7 29.1667 70.8333 27.3 70.8333 25C70.8333 22.7 72.7 20.8333 75 20.8333H79.1667C81.4667 20.8333 83.3333 22.7 83.3333 25C83.3333 27.3 81.4667 29.1667 79.1667 29.1667V29.1667Z" fill="#6ecc51"/>
</svg>
