<svg width="102" height="102" viewBox="0 0 102 102" fill="none" xmlns="http://www.w3.org/2000/svg">
<rect opacity="0.3" width="102" height="102" rx="26" fill="#25D366"/>
<path opacity="0.35" d="M63.5 30.1667H54.8084C52.5834 30.1667 50.4917 31.0333 48.9167 32.6062L32.3021 49.2208C30.925 50.6 30.1667 52.4312 30.1667 54.3771C30.1667 56.325 30.925 58.1562 32.3021 59.5333L42.4667 69.6979C43.8438 71.075 45.675 71.8333 47.6229 71.8333C49.5709 71.8333 51.4021 71.075 52.7792 69.6979L69.3917 53.0833C70.9667 51.5104 71.8334 49.4167 71.8334 47.1917V38.5C71.8334 33.9042 68.0959 30.1667 63.5 30.1667V30.1667ZM62.4584 42.6667C60.7313 42.6667 59.3334 41.2667 59.3334 39.5417C59.3334 37.8146 60.7313 36.4167 62.4584 36.4167C64.1854 36.4167 65.5834 37.8146 65.5834 39.5417C65.5834 41.2667 64.1854 42.6667 62.4584 42.6667Z" fill="#25D366"/>
<path d="M50.3542 58.9292C54.2917 54.9917 49.4084 51.1833 51.4604 49.1312C52.6688 47.9229 53.7459 48.7458 54.075 49.075C54.4 49.4 54.6084 49.7625 54.7417 50.1146C55.0542 50.9437 55.9729 51.3812 56.8458 51.2312C57.9667 51.0375 58.6479 49.875 58.2458 48.8125C58.025 48.2292 57.6688 47.5833 57.1188 46.9187L57.6917 46.3458C58.2167 45.8208 58.2188 44.9667 57.6917 44.4396C57.1646 43.9125 56.3125 43.9125 55.7854 44.4396L55.0125 45.2125C52.8854 44.15 50.3896 44.5729 48.5229 46.4417C44.3917 50.5729 49.4292 54.1187 47.2813 56.2667C46.8667 56.6812 45.7729 57.3854 44.7063 56.3187C44.2313 55.8437 43.9563 55.3042 43.8 54.7958C43.5313 53.9354 42.6125 53.4542 41.7271 53.6187L41.6334 53.6375C40.6104 53.8312 39.925 54.85 40.2042 55.8521C40.4375 56.6958 40.8584 57.5896 41.5688 58.4687L40.8959 59.1437C40.3709 59.6687 40.3688 60.5229 40.8959 61.05C41.4209 61.575 42.275 61.5771 42.8021 61.05L43.6417 60.2104C45.9459 61.4333 48.5063 60.775 50.3542 58.9292H50.3542Z" fill="#25D366"/>
</svg>
