<svg width="102" height="102" viewBox="0 0 102 102" fill="none" xmlns="http://www.w3.org/2000/svg">
<rect opacity="0.3" width="102" height="102" rx="26" fill="#25D366"/>
<path opacity="0.35" d="M51 67.6667C61.3554 67.6667 69.75 59.272 69.75 48.9167C69.75 38.5613 61.3554 30.1667 51 30.1667C40.6447 30.1667 32.25 38.5613 32.25 48.9167C32.25 59.272 40.6447 67.6667 51 67.6667Z" fill="#25D366"/>
<path fill-rule="evenodd" clip-rule="evenodd" d="M73.2667 62.85L67.7417 57.325C66.8375 59.1229 65.6687 60.7646 64.2583 62.1729C64.2583 62.1729 64.2562 62.175 64.2542 62.175C62.1021 64.325 59.4271 65.95 56.4396 66.8562L62.8479 73.2646C64.0646 74.4812 66.1458 73.9062 66.5646 72.2354L67.2271 69.5833C67.5167 68.4229 68.4229 67.5167 69.5833 67.2271L72.2354 66.5646C73.9083 66.1479 74.4833 64.0667 73.2667 62.85Z" fill="#25D366"/>
<path fill-rule="evenodd" clip-rule="evenodd" d="M37.7458 62.1771C37.7458 62.1771 37.7437 62.175 37.7416 62.175C36.3333 60.7667 35.1646 59.125 34.2583 57.3271L28.7333 62.8521C27.5166 64.0687 28.0916 66.15 29.7625 66.5687L32.4146 67.2312C33.575 67.5208 34.4812 68.4271 34.7708 69.5875L35.4333 72.2396C35.8521 73.9104 37.9312 74.4854 39.15 73.2687L45.5583 66.8604C42.5708 65.9542 39.8958 64.3292 37.7458 62.1771V62.1771Z" fill="#25D366"/>
<path d="M49.4417 56.7458V44.975L48.3229 45.8187C47.425 46.4979 46.1333 46.2333 45.575 45.2562C45.1021 44.4312 45.325 43.3812 46.0937 42.8187L49.1542 40.5771C49.6333 40.225 50.2146 40.0354 50.8083 40.0354C52.3562 40.0354 53.6104 41.2896 53.6104 42.8375V56.7437C53.6104 57.8937 52.6771 58.8271 51.5271 58.8271C50.375 58.8292 49.4417 57.8958 49.4417 56.7458V56.7458Z" fill="#25D366"/>
</svg>
