<svg width="102" height="102" viewBox="0 0 102 102" fill="none" xmlns="http://www.w3.org/2000/svg">
<rect opacity="0.3" width="102" height="102" rx="26" fill="#25D366"/>
<g filter="url(#filter0_d)">
<path opacity="0.35" d="M60.7229 58.2688C64.9229 55.2417 67.6666 50.3229 67.6666 44.75C67.6666 35.5458 60.2041 28.0833 51 28.0833C41.7958 28.0833 34.3333 35.5458 34.3333 44.75C34.3333 50.3229 37.0771 55.2417 41.2771 58.2688L42.6166 63.5H59.3833L60.7229 58.2688Z" fill="#25D366"/>
<path d="M58.4521 67.1333L59.3833 63.5H42.6166L43.5458 67.1333C44.2541 69.8979 46.7458 71.8333 49.6 71.8333H52.3979C55.2541 71.8333 57.7458 69.8979 58.452 67.1333H58.4521Z" fill="#25D366"/>
</g>
<defs>
<filter id="filter0_d" x="11" y="19" width="80" height="80" filterUnits="userSpaceOnUse" color-interpolation-filters="sRGB">
<feFlood flood-opacity="0" result="BackgroundImageFix"/>
<feColorMatrix in="SourceAlpha" type="matrix" values="0 0 0 0 0 0 0 0 0 0 0 0 0 0 0 0 0 0 127 0"/>
<feOffset dy="8"/>
<feGaussianBlur stdDeviation="7.5"/>
<feColorMatrix type="matrix" values="0 0 0 0 0.376471 0 0 0 0 0.65098 0 0 0 0 0.290196 0 0 0 0.35 0"/>
<feBlend mode="normal" in2="BackgroundImageFix" result="effect1_dropShadow"/>
<feBlend mode="normal" in="SourceGraphic" in2="effect1_dropShadow" result="shape"/>
</filter>
</defs>
</svg>
