<svg width="102" height="102" viewBox="0 0 102 102" fill="none" xmlns="http://www.w3.org/2000/svg">
<rect opacity="0.3" width="102" height="102" rx="26" fill="#60A64A"/>
<g filter="url(#filter0_d)">
<path d="M67.6667 59.3333V67.6667C67.6667 69.9583 65.7917 71.8333 63.5 71.8333H51C48.7084 71.8333 46.8334 69.9583 46.8334 67.6667V59.3333L53.5 64.3333C54.6042 65.1667 55.9375 65.5833 57.25 65.5833C58.5834 65.5833 59.8959 65.1667 61 64.3333L67.6667 59.3333Z" fill="#60A64A"/>
<path d="M56 61L48.9375 55.7083C49.5417 55.3542 50.25 55.1667 51 55.1667H63.5C64.25 55.1667 64.9583 55.3542 65.5625 55.7083L58.5 61C57.7708 61.5625 56.7292 61.5625 56 61Z" fill="#60A64A"/>
<path opacity="0.35" d="M63.5 55.1667H55.1667V44.75C55.1667 42.4479 53.3021 40.5833 51 40.5833H34.3334C32.0313 40.5833 30.1667 42.4479 30.1667 44.75V57.25C30.1667 59.5521 32.0313 61.4167 34.3334 61.4167H46.8334V67.6667C46.8334 69.9687 48.6979 71.8333 51 71.8333H63.5C65.8021 71.8333 67.6667 69.9687 67.6667 67.6667V59.3333C67.6667 57.0312 65.8021 55.1667 63.5 55.1667V55.1667Z" fill="#60A64A"/>
<path d="M38.5 47.0021V55C38.5 56.7479 40.5208 57.7188 41.8854 56.6271L46.8833 52.6292C47.925 51.7958 47.925 50.2104 46.8833 49.375L41.8854 45.375C40.5208 44.2833 38.5 45.2542 38.5 47.0021V47.0021Z" fill="#60A64A"/>
<path d="M60.1667 30.5833L55.1667 34.3333H53.0834C50.7813 34.3333 48.9167 36.1979 48.9167 38.5V42.6667C48.9167 44.9688 50.7813 46.8333 53.0834 46.8333H55.1667L60.1667 50.5833C61.5396 51.6125 63.5 50.6333 63.5 48.9167V32.25C63.5 30.5333 61.5396 29.5542 60.1667 30.5833V30.5833Z" fill="#60A64A"/>
<path opacity="0.35" d="M67.6709 46.275C66.9521 46.275 66.2521 45.9021 65.8667 45.2354C65.2896 44.2396 65.6292 42.9646 66.625 42.3875C67.2688 42.0167 67.6667 41.325 67.6667 40.5833C67.6667 39.8417 67.2688 39.15 66.625 38.7771C65.6271 38.2 65.2875 36.925 65.8667 35.9292C66.4417 34.9333 67.7188 34.5917 68.7125 35.1708C70.6375 36.2875 71.8334 38.3604 71.8334 40.5833C71.8334 42.8063 70.6375 44.8792 68.7125 45.9938C68.3854 46.1833 68.025 46.275 67.6709 46.275H67.6709Z" fill="#60A64A"/>
</g>
<defs>
<filter id="filter0_d" x="11" y="19" width="80" height="80" filterUnits="userSpaceOnUse" color-interpolation-filters="sRGB">
<feFlood flood-opacity="0" result="BackgroundImageFix"/>
<feColorMatrix in="SourceAlpha" type="matrix" values="0 0 0 0 0 0 0 0 0 0 0 0 0 0 0 0 0 0 127 0"/>
<feOffset dy="8"/>
<feGaussianBlur stdDeviation="7.5"/>
<feColorMatrix type="matrix" values="0 0 0 0 0.376471 0 0 0 0 0.65098 0 0 0 0 0.290196 0 0 0 0.35 0"/>
<feBlend mode="normal" in2="BackgroundImageFix" result="effect1_dropShadow"/>
<feBlend mode="normal" in="SourceGraphic" in2="effect1_dropShadow" result="shape"/>
</filter>
</defs>
</svg>
