<svg width="100" height="100" viewBox="0 0 100 100" fill="none" xmlns="http://www.w3.org/2000/svg">
<path opacity="0.35" d="M83.3333 75C83.3333 81.9042 77.7375 87.5 70.8333 87.5H33.3333C26.4292 87.5 20.8333 81.9042 20.8333 75V25C20.8333 18.0958 26.4292 12.5 33.3333 12.5H70.8333C77.7375 12.5 83.3333 18.0958 83.3333 25V75Z" fill="#6ecc51"/>
<path d="M58.3333 75V70.8333C58.3333 66.2292 54.6042 62.5 50 62.5H16.6667C12.0625 62.5 8.33334 66.2292 8.33334 70.8333V75C8.33334 81.9042 13.9292 87.5 20.8333 87.5H70.8333C63.9292 87.5 58.3333 81.9042 58.3333 75H58.3333Z" fill="#6ecc51"/>
<path d="M66.6667 37.5H54.1667C51.8625 37.5 50 35.6333 50 33.3333C50 31.0333 51.8625 29.1667 54.1667 29.1667H66.6667C68.9708 29.1667 70.8333 31.0333 70.8333 33.3333C70.8333 35.6333 68.9708 37.5 66.6667 37.5Z" fill="#6ecc51"/>
<path d="M66.6667 54.1667H54.1667C51.8625 54.1667 50 52.3 50 50C50 47.7 51.8625 45.8333 54.1667 45.8333H66.6667C68.9708 45.8333 70.8333 47.7 70.8333 50C70.8333 52.3 68.9708 54.1667 66.6667 54.1667Z" fill="#6ecc51"/>
<path d="M37.5 37.5C39.8012 37.5 41.6667 35.6345 41.6667 33.3334C41.6667 31.0322 39.8012 29.1667 37.5 29.1667C35.1988 29.1667 33.3333 31.0322 33.3333 33.3334C33.3333 35.6345 35.1988 37.5 37.5 37.5Z" fill="#6ecc51"/>
<path d="M37.5 54.1667C39.8012 54.1667 41.6667 52.3012 41.6667 50C41.6667 47.6988 39.8012 45.8333 37.5 45.8333C35.1988 45.8333 33.3333 47.6988 33.3333 50C33.3333 52.3012 35.1988 54.1667 37.5 54.1667Z" fill="#6ecc51"/>
</svg>
