<svg width="102" height="102" viewBox="0 0 102 102" fill="none" xmlns="http://www.w3.org/2000/svg">
<rect opacity="0.3" width="102" height="102" rx="26" fill="#25D366"/>
<g filter="url(#filter0_d)">
<path opacity="0.35" d="M63.5 30.1667H54.8083C52.5833 30.1667 50.4917 31.0333 48.9167 32.6062L32.3021 49.2208C30.925 50.6 30.1667 52.4312 30.1667 54.3771C30.1667 56.325 30.925 58.1562 32.3021 59.5333L42.4667 69.6979C43.8437 71.075 45.675 71.8333 47.6229 71.8333C49.5708 71.8333 51.4021 71.075 52.7792 69.6979L69.3917 53.0833C70.9667 51.5104 71.8333 49.4167 71.8333 47.1917V38.5C71.8333 33.9042 68.0958 30.1667 63.5 30.1667V30.1667ZM62.4583 42.6667C60.7312 42.6667 59.3333 41.2667 59.3333 39.5417C59.3333 37.8146 60.7312 36.4167 62.4583 36.4167C64.1854 36.4167 65.5833 37.8146 65.5833 39.5417C65.5833 41.2667 64.1854 42.6667 62.4583 42.6667V42.6667Z" fill="#25D366"/>
<path d="M50.3542 58.9291C54.2917 54.9916 49.4083 51.1833 51.4604 49.1312C52.6687 47.9229 53.7458 48.7458 54.075 49.075C54.4 49.4 54.6083 49.7625 54.7417 50.1146C55.0542 50.9437 55.9729 51.3812 56.8458 51.2312C57.9667 51.0375 58.6479 49.875 58.2458 48.8125C58.025 48.2291 57.6687 47.5833 57.1187 46.9187L57.6917 46.3458C58.2167 45.8208 58.2187 44.9666 57.6917 44.4396C57.1646 43.9125 56.3125 43.9125 55.7854 44.4396L55.0125 45.2125C52.8854 44.15 50.3896 44.5729 48.5229 46.4416C44.3917 50.5729 49.4292 54.1187 47.2812 56.2666C46.8667 56.6812 45.7729 57.3854 44.7062 56.3187C44.2312 55.8437 43.9562 55.3041 43.8 54.7958C43.5312 53.9354 42.6125 53.4541 41.7271 53.6187L41.6333 53.6375C40.6104 53.8312 39.925 54.85 40.2042 55.8521C40.4375 56.6958 40.8583 57.5896 41.5687 58.4687L40.8958 59.1437C40.3708 59.6687 40.3687 60.5229 40.8958 61.05C41.4208 61.575 42.275 61.5771 42.8021 61.05L43.6417 60.2104C45.9458 61.4333 48.5062 60.775 50.3542 58.9291H50.3542Z" fill="#25D366"/>
</g>
<defs>
<filter id="filter0_d" x="11" y="19" width="80" height="80" filterUnits="userSpaceOnUse" color-interpolation-filters="sRGB">
<feFlood flood-opacity="0" result="BackgroundImageFix"/>
<feColorMatrix in="SourceAlpha" type="matrix" values="0 0 0 0 0 0 0 0 0 0 0 0 0 0 0 0 0 0 127 0"/>
<feOffset dy="8"/>
<feGaussianBlur stdDeviation="7.5"/>
<feColorMatrix type="matrix" values="0 0 0 0 0.376471 0 0 0 0 0.65098 0 0 0 0 0.290196 0 0 0 0.35 0"/>
<feBlend mode="normal" in2="BackgroundImageFix" result="effect1_dropShadow"/>
<feBlend mode="normal" in="SourceGraphic" in2="effect1_dropShadow" result="shape"/>
</filter>
</defs>
</svg>
