<svg width="102" height="102" viewBox="0 0 102 102" fill="none" xmlns="http://www.w3.org/2000/svg">
<rect opacity="0.3" width="102" height="102" rx="26" fill="#25D366"/>
<g clip-path="url(#clip0)">
<path d="M51 55.1667H59.3333C60.4854 55.1667 61.4167 54.2333 61.4167 53.0833C61.4167 51.9333 60.4854 51 59.3333 51H51C49.8479 51 48.9167 51.9333 48.9167 53.0833C48.9167 54.2333 49.8479 55.1667 51 55.1667Z" fill="#25D366"/>
<path d="M51 46.8333H59.3333C60.4854 46.8333 61.4167 45.9 61.4167 44.75C61.4167 43.6 60.4854 42.6667 59.3333 42.6667H51C49.8479 42.6667 48.9167 43.6 48.9167 44.75C48.9167 45.9 49.8479 46.8333 51 46.8333Z" fill="#25D366"/>
<path d="M51 63.5H59.3333C60.4854 63.5 61.4167 62.5667 61.4167 61.4167C61.4167 60.2667 60.4854 59.3333 59.3333 59.3333H51C49.8479 59.3333 48.9167 60.2667 48.9167 61.4167C48.9167 62.5667 49.8479 63.5 51 63.5Z" fill="#25D366"/>
<path d="M42.6667 55.1667C43.8173 55.1667 44.75 54.2339 44.75 53.0833C44.75 51.9328 43.8173 51 42.6667 51C41.5161 51 40.5833 51.9328 40.5833 53.0833C40.5833 54.2339 41.5161 55.1667 42.6667 55.1667Z" fill="#25D366"/>
<path d="M42.6667 63.5C43.8173 63.5 44.75 62.5673 44.75 61.4167C44.75 60.2661 43.8173 59.3333 42.6667 59.3333C41.5161 59.3333 40.5833 60.2661 40.5833 61.4167C40.5833 62.5673 41.5161 63.5 42.6667 63.5Z" fill="#25D366"/>
<path opacity="0.35" d="M61.4166 32.25H43.6271C42.9041 31.0125 41.8729 29.9792 40.6375 29.2542C39.9416 28.8458 39.3333 26.4167 39.3333 26.4167C37.4375 25.8542 35.3958 25.8542 33.5 26.4167C33.5 26.4167 32.9083 28.8396 32.2208 29.2396C29.7479 30.6792 28.0833 33.3479 28.0833 36.4167C28.0833 36.7729 28.1458 37.1125 28.1875 37.4583C28.1458 37.8042 28.0833 38.1438 28.0833 38.5C28.0833 42.3792 30.7458 45.6083 34.3333 46.5396V65.5833C34.3333 69.0354 37.1312 71.8333 40.5833 71.8333H61.4166C64.8687 71.8333 67.6666 69.0354 67.6666 65.5833V38.5C67.6666 35.0479 64.8687 32.25 61.4166 32.25V32.25Z" fill="#25D366"/>
<path d="M46.8333 36.4167C46.8333 42.1667 42.1667 46.8333 36.4167 46.8333C30.6667 46.8333 26 42.1667 26 36.4167C26 31.6875 29.1667 27.6667 33.5 26.4167L34.9167 29.2708C35.5417 30.5 37.2917 30.5 37.9167 29.2708L39.3333 26.4167C43.6667 27.6667 46.8333 31.6875 46.8333 36.4167ZM35.575 38.3396C36.6417 38.7917 37.8687 38.2917 38.3187 37.2271C38.7687 36.1625 38.2708 34.9333 37.2062 34.4833L32.3729 32.4396C31.6979 32.1542 30.8937 32.3729 30.4646 33C29.975 33.7188 30.1604 34.6958 30.8771 35.1833L35.2104 38.1396C35.3208 38.2146 35.4479 38.2875 35.575 38.3396Z" fill="#25D366"/>
</g>
<defs>
<clipPath id="clip0">
<rect width="50" height="50" fill="white" transform="translate(26 26)"/>
</clipPath>
</defs>
</svg>
