<svg width="102" height="102" viewBox="0 0 102 102" fill="none" xmlns="http://www.w3.org/2000/svg">
<rect opacity="0.3" width="102" height="102" rx="26" fill="#6ecc51"/>
<g filter="url(#filter0_d)">
<path opacity="0.35" d="M63.5 69.75H38.5C35.0479 69.75 32.25 66.9521 32.25 63.5V40.5833H69.75V63.5C69.75 66.9521 66.9521 69.75 63.5 69.75Z" fill="#6ecc51"/>
<path d="M61.4167 69.75H51V55.1667C51 54.0167 51.9333 53.0833 53.0833 53.0833H59.3333C60.4833 53.0833 61.4167 54.0167 61.4167 55.1667L61.4167 69.75Z" fill="#6ecc51"/>
<path d="M44.75 61.4167H40.5833C39.4333 61.4167 38.5 60.4833 38.5 59.3333V55.1667C38.5 54.0167 39.4333 53.0833 40.5833 53.0833H44.75C45.9 53.0833 46.8333 54.0167 46.8333 55.1667V59.3333C46.8333 60.4833 45.9 61.4167 44.75 61.4167Z" fill="#6ecc51"/>
<path d="M71.6146 43.8187L69.75 40.0917V38.5C69.75 35.0479 66.9521 32.25 63.5 32.25H38.5C35.0479 32.25 32.25 35.0479 32.25 38.5V40.0917L30.3854 43.8187C29.9646 44.6604 30.1604 45.6771 30.8625 46.3042C31.1625 46.5708 33.8896 48.9167 37.4583 48.9167C39.7667 48.9167 41.725 47.9333 42.9 47.1688C44.5146 47.8646 47.525 48.9167 51 48.9167C54.475 48.9167 57.4854 47.8646 59.1 47.1688C60.275 47.9333 62.2333 48.9167 64.5417 48.9167C68.1104 48.9167 70.8375 46.5708 71.1375 46.3042C71.8396 45.6771 72.0354 44.6604 71.6146 43.8187V43.8187Z" fill="#6ecc51"/>
</g>
<defs>
<filter id="filter0_d" x="11" y="19" width="80" height="80" filterUnits="userSpaceOnUse" color-interpolation-filters="sRGB">
<feFlood flood-opacity="0" result="BackgroundImageFix"/>
<feColorMatrix in="SourceAlpha" type="matrix" values="0 0 0 0 0 0 0 0 0 0 0 0 0 0 0 0 0 0 127 0"/>
<feOffset dy="8"/>
<feGaussianBlur stdDeviation="7.5"/>
<feColorMatrix type="matrix" values="0 0 0 0 0.376471 0 0 0 0 0.65098 0 0 0 0 0.290196 0 0 0 0.35 0"/>
<feBlend mode="normal" in2="BackgroundImageFix" result="effect1_dropShadow"/>
<feBlend mode="normal" in="SourceGraphic" in2="effect1_dropShadow" result="shape"/>
</filter>
</defs>
</svg>
