<svg width="100" height="100" viewBox="0 0 100 100" fill="none" xmlns="http://www.w3.org/2000/svg">
<path d="M54.1666 78.875V91.6667H45.8333V78.875C48.5833 79.2083 51.4166 79.2083 54.1666 78.875Z" fill="#25D366"/>
<path d="M79.1667 95.8333H20.8333C18.5292 95.8333 16.6667 93.9667 16.6667 91.6667C16.6667 89.3667 18.5292 87.5 20.8333 87.5H79.1667C81.4708 87.5 83.3333 89.3667 83.3333 91.6667C83.3333 93.9667 81.4708 95.8333 79.1667 95.8333Z" fill="#25D366"/>
<path opacity="0.35" d="M23.4833 68.1833C8.86249 53.5625 8.86249 29.7708 23.4833 15.15C38.1042 0.529165 61.8958 0.529165 76.5167 15.15C91.1375 29.7708 91.1375 53.5625 76.5167 68.1833C61.8958 82.8042 38.1042 82.8042 23.4833 68.1833V68.1833ZM61.7833 29.8833C55.2833 23.3833 44.7125 23.3833 38.2125 29.8833C31.7125 36.3833 31.7125 46.9542 38.2125 53.4542C44.7125 59.9542 55.2833 59.9542 61.7833 53.4542C68.2833 46.9542 68.2833 36.3792 61.7833 29.8833V29.8833Z" fill="#25D366"/>
<path d="M28.2917 11.125L43.5 26.3333C39.5 28 36.3333 31.1667 34.6667 35.1667L19.4583 19.9583C21.875 16.5417 24.875 13.5417 28.2917 11.125V11.125Z" fill="#25D366"/>
<path d="M43.5 57L28.2917 72.2083C24.875 69.7917 21.875 66.7916 19.4583 63.375L34.6667 48.1667C36.3333 52.1667 39.5 55.3333 43.5 57V57Z" fill="#25D366"/>
<path d="M65.3333 48.1667L80.5417 63.375C78.125 66.7917 75.125 69.7917 71.7083 72.2083L56.5 57C60.5 55.3333 63.6667 52.1667 65.3333 48.1667V48.1667Z" fill="#25D366"/>
<path d="M56.5 26.3333L71.7083 11.125C75.125 13.5417 78.125 16.5417 80.5417 19.9583L65.3333 35.1667C63.6667 31.1667 60.5 28 56.5 26.3333Z" fill="#25D366"/>
</svg>
