<svg width="102" height="102" viewBox="0 0 102 102" fill="none" xmlns="http://www.w3.org/2000/svg">
<rect opacity="0.3" width="102" height="102" rx="26" fill="#25D366"/>
<g filter="url(#filter0_d)">
<path opacity="0.35" d="M51 71.8334C61.3554 71.8334 69.75 63.4387 69.75 53.0834C69.75 42.728 61.3554 34.3333 51 34.3333C40.6447 34.3333 32.25 42.728 32.25 53.0834C32.25 63.4387 40.6447 71.8334 51 71.8334Z" fill="#25D366"/>
<path d="M48.0542 56.0292C47.1333 55.1083 43.4854 49.575 40.4896 44.9417C39.4854 43.3896 41.3062 41.5688 42.8583 42.5708C47.4917 45.5667 53.025 49.2167 53.9458 50.1354C55.5729 51.7625 55.5729 54.4 53.9458 56.0271C52.3187 57.6563 49.6812 57.6563 48.0542 56.0292V56.0292Z" fill="#25D366"/>
<path d="M54.125 28.0833C53.3208 28.0833 48.6792 28.0833 47.875 28.0833C46.15 28.0833 44.75 29.4833 44.75 31.2083C44.75 32.9333 46.15 34.3333 47.875 34.3333C48.6792 34.3333 53.3208 34.3333 54.125 34.3333C55.85 34.3333 57.25 32.9333 57.25 31.2083C57.25 29.4833 55.85 28.0833 54.125 28.0833Z" fill="#25D366"/>
<path d="M68.8354 36.7208C68.2667 36.1521 67.9312 35.8167 67.3625 35.2479C66.1417 34.0271 64.1625 34.0271 62.9437 35.2479C61.725 36.4688 61.7229 38.4479 62.9437 39.6667C63.5125 40.2354 63.8479 40.5708 64.4167 41.1396C65.6375 42.3604 67.6167 42.3604 68.8354 41.1396C70.0542 39.9208 70.0542 37.9417 68.8354 36.7208V36.7208Z" fill="#25D366"/>
</g>
<defs>
<filter id="filter0_d" x="11" y="19" width="80" height="80" filterUnits="userSpaceOnUse" color-interpolation-filters="sRGB">
<feFlood flood-opacity="0" result="BackgroundImageFix"/>
<feColorMatrix in="SourceAlpha" type="matrix" values="0 0 0 0 0 0 0 0 0 0 0 0 0 0 0 0 0 0 127 0"/>
<feOffset dy="8"/>
<feGaussianBlur stdDeviation="7.5"/>
<feColorMatrix type="matrix" values="0 0 0 0 0.376471 0 0 0 0 0.65098 0 0 0 0 0.290196 0 0 0 0.35 0"/>
<feBlend mode="normal" in2="BackgroundImageFix" result="effect1_dropShadow"/>
<feBlend mode="normal" in="SourceGraphic" in2="effect1_dropShadow" result="shape"/>
</filter>
</defs>
</svg>
